<svg width="300" height="240" xmlns="http://www.w3.org/2000/svg" preserveAspectRatio="xMidYMid meet">

 <g>
  <title>background</title>
  <rect fill="none" id="canvas_background" height="402" width="582" y="-1" x="-1"/>
 </g>
 <g>
  <title>Layer 1</title>
  <path fill="#ffffff" class="node" id="node1" d="m53.400001,37.499997c-0.4,0.9 -0.4,4.1 0,7.1c0.3,3 0.3,5.4 -0.1,5.4c-0.5,0 -1.4,0.4 -2.2,0.9c-1.2,0.8 -0.2,2.3 4.5,7.4c7.4,7.8 14.6,18.6 18.2,26.9c2.4,5.5 2.7,7.6 2.7,17.3c0,10.2 -0.2,11.4 -2.8,16.5c-1.6,3 -5.4,8.1 -8.5,11.2c-4.5,4.7 -5.3,5.8 -3.9,6.4c2.9,1.1 1.8,2.7 -4.6,7.4c-7.4,5.4 -15.7,17.3 -26,37.300001l-6.5,12.8l2.9,0.6c3.5,0.7 3.6,1 0.4,3.5c-1.4,1.1 -2.5,2.4 -2.5,2.9c0,0.5 5.3,0.8 11.9,0.8l12,-0.2l0.6,-2.7c0.3,-1.6 1.4,-3 2.4,-3.3c1.6,-0.4 1.9,-2 2.3,-11.3c0.8,-14.9 2.2,-19.7 7.2,-24.9c5.7,-5.9 12.5,-8 19.5,-5.9c4.3,1.3 6.4,3 16.3,13.5c6.2,6.7 14.9,16.8 19.2,22.5c4.3,5.7 8.4,10.4 9.1,10.4c0.7,0 1.8,0.7 2.5,1.5c1.6,2 5.6,1.9 6.4,0c0.4,-1.2 1,-1.3 2.4,-0.6c3.1,1.7 15.2,1.9 15.2,0.3c0,-0.5 -0.9,-1.8 -2,-3c-2.6,-2.7 -1.3,-3.4 4.8,-2.6c6.8,0.9 8.1,1.8 5.9,4.2c-0.9,1 -1.7,2.2 -1.7,2.7c0,1.5 8.8,-0.2 11.8,-2.4c3.6,-2.6 4.2,-2.6 4.3,-0.4c0,1.1 0.4,0.8 0.8,-0.8c1.6,-5.1 3.2,-6.8 7.3,-7.9c3,-0.9 4.8,-0.9 6.5,-0.1c3.7,1.7 7.8,1.3 9.7,-0.8c1.4,-1.6 2.2,-1.8 3.6,-0.9c1.4,0.9 2.3,0.7 4.5,-1c2.2,-1.8 3.5,-2 7.2,-1.5c3.5,0.5 4.9,0.2 5.7,-0.9c1.5,-2 5,-3.8 7.3,-3.8c1,0.1 3.6,0.9 5.8,2c4.4,2 5.5,1.8 5.5,-1c0,-1.1 1,-2.4 2.3,-3c1.2,-0.7 3.7,-2.8 5.5,-4.8l3.4,-3.7l-0.5,5c-0.3,2.7 -1.5,7 -2.6,9.5c-2.1,4.7 -2.9,11.6 -1.1,10.5c0.6,-0.3 1.4,0.5 1.9,1.8c0.8,2.1 5.4,4.7 8.2,4.7c1.4,0 1,-2.6 -0.5,-3.9c-3.6,-3 -1.9,-17.1 3.5,-29.9c1.9,-4.3 2,-4.4 3.9,-2.7c1.8,1.6 1.9,1.5 3.5,-1.4c0.9,-1.8 2,-2.9 2.4,-2.6c1.8,1 2,-2.7 0.4,-6.8c-3.5,-9.1 -11.5,-14.8 -26.3,-18.6c-10.9,-2.8 -13.2,-4 -14.4,-7.3c-0.8,-2.3 -0.5,-3.2 2.7,-6.7c3.9,-4.3 4.9,-9.1 2.7,-13.2c-0.9,-1.6 -0.3,-2.6 3.6,-6.3c2.5,-2.5 5.2,-4.2 5.8,-4c0.7,0.3 2.1,-0.4 3.1,-1.6c1.3,-1.5 2.1,-1.7 3.1,-0.9c1,0.8 2.1,-0.2 4.8,-4.3c6,-9.4 8.3,-9.9 12,-2.3c1.7,3.3 2.1,3.7 3,2.2c0.9,-1.5 1.3,-1.4 3.8,1l2.8,2.7l0,-2.7c0,-1.5 -1.8,-7.2 -4,-12.7c-4.4,-11.1 -4.6,-12.7 -2.5,-18.5c1.6,-4.6 2,-11.5 0.5,-11.5c-0.5,0 -1,0.5 -1,1.1c0,1.9 -4.1,6.4 -6.3,6.9c-1.4,0.4 -4.5,4 -8.1,9.5c-9.7,14.6 -28.4,32.1 -31.2,29.2c-1.6,-1.5 -2.2,-8.4 -1.2,-11.5c1.1,-3 1,-3.5 -1.4,-5.7c-1.5,-1.4 -3.8,-2.5 -5.2,-2.5c-1.4,0 -2.8,-0.5 -3.1,-1c-0.8,-1.3 -5.1,-1.3 -7.6,0c-5.2,2.8 -6.5,13.1 -2.4,19.2c4.4,6.5 4,6.7 -8.5,3.8c-11.2,-2.6 -21.4,-2.5 -30.8,0.1l-7.4,2l-6.8,-2c-9.4,-2.9 -22.2,-5.2 -29.7,-5.5c-7,-0.2 -8.4,-0.9 -5.4,-2.6c1.2,-0.6 2.1,-0.8 2.1,-0.5c0,1.6 2.6,-2.4 3.8,-5.8c1.3,-3.5 1.2,-4.2 -1.6,-10.2c-1.7,-3.5 -4.2,-7.1 -5.6,-8c-2.4,-1.6 -2.8,-1.6 -6.6,0.3c-2.3,1.1 -5,1.8 -6,1.5c-1.3,-0.4 -2,0 -2,1c0,0.8 -1.2,2.2 -2.6,3.2c-2.1,1.4 -2.5,2.3 -2.2,5.1c0.5,4.1 0.1,4 -7.8,-1.2c-9.4,-6.2 -15.9,-16.3 -18.6,-28.4c-0.6,-3 -1.2,-5.6 -1.4,-5.8c-0.1,-0.2 -1.2,0.3 -2.4,1c-1.9,1.1 -2.3,1.1 -2.8,-0.1c-0.2,-0.7 -1.3,-2.2 -2.3,-3.2c-1.1,-1.1 -1.9,-2.3 -1.9,-2.8c0,-1.8 -2,-2.2 -2.6,-0.6zm81.600001,71.700001c7.3,2.3 10.8,3.7 15.9,6.7l5.2,3.1l5.8,-3.5c6.7,-4.2 16.8,-7.5 22.8,-7.5c7,0 14.7,3.5 19.5,8.9c13.6,15.1 11.9,29.2 -5.6,46.700001c-9.8,9.7 -30.9,23.9 -42.300001,28.4c-3.1,1.2 -3.5,1 -8,-2.7c-2.7,-2.2 -9.4,-7.2 -15,-11.2c-19.8,-13.9 -32,-26 -30.9,-30.6c0.3,-1.2 -0.3,-4.5 -1.4,-7.3c-2.7,-7.2 -2.5,-12.7 0.6,-19c3.5,-7 9.5,-11.3 18.9,-13.6c2.6,-0.6 10,0.2 14.5,1.6z"/>
 </g>
</svg>