<svg width="300" height="240" xmlns="http://www.w3.org/2000/svg" preserveAspectRatio="xMidYMid meet">
 <metadata>svgimages.com</metadata>

 <g>
  <title>background</title>
  <rect fill="none" id="canvas_background" height="402" width="582" y="-1" x="-1"/>
 </g>
 <g>
  <title>Layer 1</title>
  <path fill="#ffffff" class="node" id="node1" d="m156.500002,76.699998c-1.6,0.8 -4,2.4 -5.2,3.5c-2,1.8 -2.8,1.9 -8,1c-3.6,-0.6 -7.6,-0.7 -10.3,-0.2c-2.5,0.5 -4.8,0.9 -5.3,1c-1.7,0.1 -10,8.7 -11.8,12.2c-7.8,15.2 -1.2,32.1 18.7,47.800001l6.4,5.2l0,9.9l0,10l-3.1,-0.5c-2.4,-0.3 -3.7,0.1 -5.6,2c-2.1,2.1 -2.5,3.2 -2,6.5c0.8,6.1 1.9,6.8 9.8,6.7c6.6,0 8.7,-0.9 5.4,-2.2c-1.3,-0.5 -1.5,-4 -1.5,-23.5c0,-21.3 0.2,-23.3 2,-26.3c1.6,-2.7 2,-5 1.9,-12.8c0,-5.2 -0.4,-11.3 -0.8,-13.5c-0.8,-3.7 -0.9,-3.5 -1,2.7c0,3.8 -0.5,6.8 -1.1,6.8c-0.5,0 -1.1,-3 -1.3,-6.8l-0.3,-6.7l-0.2,6.7c-0.1,3.8 -0.6,6.8 -1.2,6.8c-0.5,0 -1.1,-3 -1.3,-6.8l-0.3,-6.7l-0.2,6.7c-0.1,3.8 -0.6,6.8 -1.2,6.8c-0.6,0 -1.1,-3 -1.2,-6.8c-0.1,-5.5 -0.3,-4.4 -1.1,5.5l-1,12.3l2.7,4c2.7,4.1 3.7,12.2 1.7,13.5c-1.7,1 -18.5,-16.6 -21.1,-22c-9.8,-20.3 6.5,-41.200001 26.7,-34.100001c3.9,1.4 4,1.3 6.9,-1.6c10.7,-11.5 32.1,-5 36.800001,11.1c4.4,14.9 -1.3,29.7 -17.3,45.600001l-7.1,6.9l0,-9.8c0,-9 0.2,-10.1 2.5,-12.8c2.2,-2.5 2.5,-3.9 2.5,-10.1c0,-9.3 -2.3,-14.1 -6.8,-14.5c-2.6,-0.3 -3.5,0.2 -5.1,2.9c-4,6.6 -3.5,18.4 0.9,22.4c1.9,1.7 2,3.1 2,27.7c0,22.1 -0.2,25.9 -1.5,26.4c-3.1,1.2 -1.3,2.4 3.5,2.4c2.8,0 5,-0.5 5,-1c0,-0.6 -0.7,-1 -1.5,-1c-1.3,0 -1.5,-2.2 -1.5,-14.1l0,-14.1l7.7,-7.1c8.4,-7.9 16,-18.7 19.2,-27.3c2.6,-6.7 2.8,-18 0.5,-24.6c-2.1,-6.3 -7.8,-12.6 -13.8,-15.4c-6.2,-2.9 -17.3,-3.3 -22.1,-0.7zm-15.7,95.200001c0.6,4.3 -0.6,7.1 -3.2,7.1c-2.5,0 -3.6,-1.7 -3.6,-5.5c0,-4.5 6.2,-5.9 6.8,-1.6z"/>
  <path fill="#ffffff" class="node" id="node2" d="m89.200001,158.599999c-1.5,1.1 -2.2,2.5 -2.2,5c0,2.4 -0.5,3.4 -1.5,3.4c-0.8,0 -1.5,0.4 -1.5,1c0,0.5 0.7,1 1.5,1c1.1,0 1.5,1.2 1.5,5c0,3.6 -0.4,5.2 -1.5,5.6c-3,1.2 -1.4,2.4 3,2.4c4.4,0 6,-1.2 3,-2.4c-1,-0.4 -1.5,-2 -1.5,-5.1c0,-3.8 0.4,-4.7 2.3,-5.5l2.2,-0.9l-2.3,-0.7c-1.9,-0.5 -2.2,-1.3 -2,-3.8c0.3,-2.7 0.7,-3.1 3.1,-3.1c2.9,0.1 3.7,-1.9 1.1,-2.9c-2.2,-0.9 -2.7,-0.8 -5.2,1z"/>
  <path fill="#ffffff" class="node" id="node3" d="m100.300001,166.999999c-4.3,1.7 -5.7,8.5 -2.7,12.8c2.3,3.3 8.6,3.1 11.3,-0.4c5.2,-6.6 -1,-15.6 -8.6,-12.4zm6.3,4.4c0.8,3.5 0.1,6.7 -1.8,7.9c-2.5,1.6 -4.8,-0.9 -4.8,-5.3c0,-4.3 0.5,-5 3.6,-5c1.7,0 2.5,0.7 3,2.4z"/>
  <path fill="#ffffff" class="node" id="node4" d="m117.300002,167.199999c-4.6,2.2 -5.5,11.6 -1.3,13.8c2.2,1.2 7,1.3 8.6,0.2c3.5,-2.3 4.5,-9.9 1.7,-12.4c-2.5,-2.1 -6.4,-2.8 -9,-1.6zm6.8,4.1c1.2,2.7 -0.2,7.4 -2.6,8.3c-3.4,1.3 -5.8,-4.2 -3.9,-9c0.9,-2.5 5.3,-2 6.5,0.7z"/>
  <path fill="#ffffff" class="node" id="node5" d="m172.500003,168.399999c-3.1,3.1 -3.5,9.4 -0.7,11.9c2.5,2.3 8.5,2.2 10.5,-0.1c2,-2.2 2.3,-10.5 0.4,-12c-0.7,-0.6 -2.7,-1.4 -4.5,-1.7c-2.6,-0.4 -3.8,0 -5.7,1.9zm7.3,1.8c1.6,1.6 1.5,6 -0.1,8.2c-1.8,2.5 -5.5,1.3 -6.3,-2c-1.3,-5.2 3.1,-9.5 6.4,-6.2z"/>
  <path fill="#ffffff" class="node" id="node6" d="m207.900003,167.099999c-4.8,1.8 -6.5,9.3 -2.9,12.9c3,3 12,2.6 12,-0.6c0,-1.7 -0.2,-1.7 -3.3,-0.3c-2.8,1.3 -6.7,-0.2 -6.7,-2.6c0,-1.1 1.3,-1.5 5,-1.5c4.8,0 5,-0.1 5,-2.9c0,-4.4 -4.2,-6.7 -9.1,-5zm5,3.2c1.3,1.7 0.5,2.7 -2.4,2.7c-1.2,0 -2.5,-0.3 -2.8,-0.7c-0.9,-0.8 1.2,-3.3 2.8,-3.3c0.7,0 1.8,0.6 2.4,1.3z"/>
  <path fill="#ffffff" class="node" id="node7" d="m227.700003,166.599999c-0.4,0.4 -2.5,0.7 -4.7,0.6c-2.2,-0.1 -4,0.3 -4,0.8c0,0.6 0.7,1 1.5,1c2.1,0 2.1,9.8 0,10.6c-0.8,0.4 -1.2,1 -0.9,1.5c0.7,1.2 8.4,1.1 8.4,-0.1c0,-0.6 -0.4,-1 -0.9,-1c-0.5,0 -1.1,-2.2 -1.3,-5c-0.2,-3.7 0.1,-5.1 1.2,-5.5c0.8,-0.4 1.6,-0.1 1.8,0.4c0.7,2.2 3.3,1.1 3,-1.1c-0.3,-2.3 -2.7,-3.5 -4.1,-2.2z"/>
  <path fill="#ffffff" class="node" id="node8" d="m186.000003,167.999999c0,2.6 6.6,14 8.1,14c1.4,0 3.3,-3.6 7.7,-14.2c0.2,-0.4 -1,-0.8 -2.7,-0.8c-2.8,0 -3.1,0.3 -2.6,2.3c0.4,1.3 0,3.9 -0.8,5.8l-1.4,3.4l-1.7,-3.9c-1.9,-4.4 -2,-5.6 -0.6,-5.6c0.6,0 1,-0.5 1,-1c0,-0.6 -1.6,-1 -3.5,-1c-1.9,0 -3.5,0.4 -3.5,1z"/>
 </g>
</svg>